<?xml version="1.0" encoding="UTF-8" ?>
<!DOCTYPE svg PUBLIC "-//W3C//DTD SVG 1.1//EN" "http://www.w3.org/Graphics/SVG/1.1/DTD/svg11.dtd">
<svg width="100%" viewBox="0 0 185 370" version="1.1" xmlns="http://www.w3.org/2000/svg">
<path fill="white" opacity="1.00" d=" M 14.34 22.31 C 23.50 11.26 36.74 3.68 50.93 1.48 C 66.27 -1.08 82.55 2.79 95.17 11.85 C 107.64 20.69 116.50 34.46 119.26 49.50 C 122.79 67.61 117.31 87.11 104.90 100.76 C 131.36 126.62 157.77 152.53 184.25 178.37 C 182.36 180.46 180.39 182.47 178.40 184.47 C 151.88 158.53 125.38 132.56 98.84 106.64 C 89.02 114.71 76.70 119.74 63.98 120.40 C 49.01 121.37 33.77 116.42 22.25 106.82 C 8.73 95.74 0.39 78.50 0.58 60.98 C 0.30 46.98 5.37 33.03 14.34 22.31 M 52.51 9.76 C 34.32 12.42 18.23 25.66 12.05 42.96 C 6.90 56.75 8.15 72.74 15.38 85.57 C 22.35 98.23 34.87 107.68 48.99 110.82 C 63.83 114.29 80.19 110.67 92.08 101.11 C 94.84 98.52 97.54 95.86 100.21 93.17 C 109.87 81.63 113.88 65.64 110.94 50.88 C 108.52 38.02 100.90 26.27 90.23 18.71 C 79.46 10.96 65.61 7.66 52.51 9.76 Z" />
<path fill="white" opacity="1.00" d=" M 39.22 36.73 C 45.21 31.29 52.79 27.14 61.02 26.83 C 67.47 26.47 73.75 29.27 78.46 33.56 C 83.84 38.39 87.51 44.79 90.40 51.35 C 87.83 52.48 85.26 53.60 82.69 54.72 C 79.18 47.38 74.91 39.20 66.87 36.10 C 59.04 33.32 50.98 37.65 45.14 42.67 C 43.16 40.70 41.18 38.72 39.22 36.73 Z" />
<path fill="white" opacity="1.00" d=" M 89.21 185.01 C 92.01 185.00 94.82 185.00 97.62 185.00 C 97.39 216.59 97.45 248.18 97.15 279.76 C 100.47 279.76 103.82 279.53 107.12 280.03 C 110.04 279.67 112.99 279.69 115.93 279.63 C 116.48 279.84 117.57 280.28 118.12 280.50 C 118.25 280.17 118.52 279.51 118.66 279.18 C 119.30 279.53 120.57 280.23 121.20 280.58 C 121.32 280.24 121.56 279.56 121.68 279.21 C 122.25 279.45 123.39 279.92 123.96 280.15 C 125.34 279.82 126.75 279.66 128.16 279.65 C 147.11 279.68 166.05 279.51 185.00 279.54 L 185.00 288.81 C 184.83 288.55 184.48 288.04 184.31 287.79 C 181.36 287.73 178.41 287.81 175.46 287.66 C 175.40 287.89 175.27 288.34 175.21 288.57 C 174.66 288.38 173.58 288.00 173.04 287.81 C 171.55 288.19 170.06 287.98 168.61 287.61 C 168.58 287.78 168.53 288.14 168.50 288.31 C 144.78 288.12 121.06 288.48 97.34 288.35 C 97.08 315.56 96.79 342.78 96.78 370.00 L 88.30 370.00 C 88.47 342.80 88.58 315.60 88.81 288.39 C 59.20 288.53 29.60 288.62 0.00 288.65 L 0.00 280.37 C 23.19 280.48 46.39 280.18 69.59 280.27 C 71.34 280.24 73.08 279.97 74.83 279.80 C 76.55 280.18 78.31 280.19 80.06 280.18 C 81.69 279.87 83.35 279.74 85.00 279.72 C 86.06 280.00 87.13 280.28 88.23 280.30 C 88.70 279.27 88.91 278.19 88.86 277.05 C 88.85 246.37 89.17 215.69 89.21 185.01 Z" />
</svg>
