<?xml version="1.0" encoding="UTF-8" ?>
<!DOCTYPE svg PUBLIC "-//W3C//DTD SVG 1.1//EN" "http://www.w3.org/Graphics/SVG/1.1/DTD/svg11.dtd">
<svg width="20px" height="20px" viewBox="0 0 407 407" version="1.1" xmlns="http://www.w3.org/2000/svg">
<path fill="white" opacity="1.00" d=" M 127.93 0.00 L 138.20 0.00 C 167.36 1.12 196.05 11.92 218.49 30.60 C 241.73 49.74 258.28 76.91 264.28 106.44 C 270.40 135.73 266.34 167.06 252.71 193.71 C 248.27 202.58 242.70 210.84 236.51 218.58 C 244.61 226.59 252.62 234.70 260.71 242.74 C 264.49 239.12 268.00 235.23 271.89 231.74 C 276.80 227.56 284.76 228.22 289.07 232.96 C 327.08 270.97 365.10 308.98 403.11 347.00 C 405.26 349.05 406.45 351.85 407.00 354.74 L 407.00 357.21 C 406.57 360.18 405.37 363.06 403.19 365.17 C 390.70 377.70 378.17 390.18 365.68 402.70 C 363.52 405.03 360.61 406.51 357.48 407.00 L 354.82 407.00 C 351.60 406.55 348.63 405.00 346.43 402.62 C 308.62 364.76 270.75 326.95 232.94 289.09 C 228.20 284.75 227.52 276.72 231.78 271.83 C 235.26 267.97 239.12 264.48 242.72 260.73 C 234.64 252.66 226.58 244.57 218.49 236.51 C 195.73 255.37 166.58 266.39 137.00 267.03 C 106.51 267.96 75.87 257.88 51.85 239.11 C 29.37 221.78 12.64 197.11 5.00 169.76 C 2.14 160.04 0.81 149.94 0.00 139.86 L 0.00 127.50 C 0.56 121.62 1.00 115.72 2.11 109.92 C 7.94 76.47 27.35 45.72 54.79 25.77 C 75.90 10.14 101.74 1.32 127.93 0.00 M 117.40 26.65 C 100.38 29.22 84.02 35.93 70.12 46.06 C 47.86 62.09 32.12 86.89 27.23 113.89 C 22.79 137.60 26.60 162.76 37.97 184.04 C 50.63 208.05 72.61 226.98 98.31 235.75 C 122.63 244.23 150.01 243.54 173.87 233.83 C 200.87 223.07 223.02 200.87 233.81 173.88 C 243.74 149.49 244.19 121.44 235.15 96.71 C 226.79 73.56 210.23 53.49 189.09 40.87 C 167.82 27.95 141.99 22.91 117.40 26.65 M 259.64 279.81 C 291.78 311.98 323.93 344.14 356.10 376.28 C 362.84 369.58 369.55 362.86 376.26 356.12 C 344.11 323.96 311.96 291.81 279.79 259.67 C 273.06 266.37 266.34 273.08 259.64 279.81 Z" />
</svg>
