<?xml version="1.0" encoding="UTF-8" ?>
<!DOCTYPE svg PUBLIC "-//W3C//DTD SVG 1.1//EN" "http://www.w3.org/Graphics/SVG/1.1/DTD/svg11.dtd">
<svg width="200px" height="136px" viewBox="0 0 861 572" version="1.1" xmlns="http://www.w3.org/2000/svg">
<path fill="white" opacity="1.00" d=" M 233.44 17.59 C 242.61 7.83 259.64 7.29 269.18 16.77 C 310.14 57.61 350.91 98.64 391.92 139.44 C 387.92 142.90 384.65 147.16 380.38 150.29 C 340.30 109.85 299.91 69.71 259.67 29.43 C 255.65 24.71 247.62 25.15 243.72 29.83 C 172.57 100.97 101.36 172.05 30.21 243.19 C 27.26 245.82 25.21 249.97 26.47 253.93 C 27.36 258.25 31.02 261.02 33.91 264.04 C 100.18 330.46 166.47 396.86 232.76 463.26 C 236.69 467.56 241.43 471.21 244.90 475.88 C 245.15 483.20 244.95 490.53 244.95 497.86 C 170.42 423.10 95.74 348.48 21.13 273.81 C 15.93 269.06 11.00 263.21 10.22 255.93 C 8.86 247.30 12.04 238.36 18.60 232.59 C 90.17 160.89 161.81 89.24 233.44 17.59 Z" />
<path fill="white" opacity="1.00" d=" M 602.37 10.52 C 609.32 9.36 617.18 9.49 623.16 13.69 C 626.20 15.69 628.66 18.40 631.19 20.98 C 701.83 91.62 772.47 162.27 843.13 232.91 C 846.65 236.90 850.13 241.41 850.77 246.88 C 851.17 251.75 851.55 256.92 849.47 261.51 C 846.73 268.57 840.64 273.38 835.53 278.68 C 744.06 370.13 652.62 461.60 561.15 553.05 C 555.19 559.28 546.37 561.33 538.09 562.00 C 468.36 561.98 398.63 562.04 328.91 561.98 C 320.35 561.24 312.48 556.41 306.87 550.06 C 301.86 544.27 299.39 536.59 298.99 529.03 C 299.04 461.34 298.95 393.64 299.04 325.95 C 299.85 320.57 300.12 315.04 302.15 309.92 C 303.55 305.56 306.34 301.83 309.33 298.43 C 399.68 208.11 490.01 117.75 580.36 27.41 C 587.00 20.97 593.03 13.09 602.37 10.52 M 605.41 27.68 C 603.55 28.10 602.00 29.26 600.67 30.56 C 507.33 123.94 413.95 217.29 320.60 310.65 C 317.68 313.62 316.12 317.78 316.00 321.91 C 316.00 391.28 316.00 460.66 316.00 530.03 C 315.90 539.22 325.26 546.40 334.03 546.02 C 400.74 545.97 467.44 546.06 534.14 545.97 C 539.52 544.98 546.00 545.48 549.88 540.91 C 643.38 447.39 736.91 353.89 830.41 260.36 C 835.05 256.05 835.02 247.88 830.36 243.59 C 759.22 172.43 688.07 101.28 616.91 30.13 C 613.89 27.37 609.29 26.33 605.41 27.68 Z" />
<path fill="white" opacity="1.00" d=" M 427.16 367.21 C 450.93 365.22 475.41 378.23 486.42 399.53 C 494.87 413.88 496.09 431.77 491.36 447.56 C 486.83 460.29 478.83 472.01 467.60 479.71 C 459.09 485.48 449.23 489.47 438.95 490.44 C 430.32 492.11 421.54 490.08 413.20 487.88 C 400.74 483.36 388.91 475.70 381.78 464.28 C 373.97 453.93 370.88 440.97 370.21 428.25 C 371.19 421.41 371.74 414.44 374.16 407.90 C 377.18 400.00 381.94 392.87 387.37 386.43 C 397.78 375.51 412.20 368.79 427.16 367.21 M 424.26 384.29 C 418.09 385.24 412.52 388.16 407.18 391.23 C 394.25 399.47 386.60 414.80 386.96 430.02 C 387.20 438.65 389.92 447.15 394.57 454.42 C 400.45 463.20 409.60 469.39 419.58 472.60 C 426.18 474.72 433.22 474.01 440.02 473.84 C 447.34 472.12 454.82 469.56 460.52 464.46 C 468.59 458.87 473.31 449.65 476.30 440.54 C 476.98 435.22 478.75 429.80 477.37 424.46 C 476.90 420.86 476.53 417.20 475.10 413.82 C 471.91 406.33 467.90 398.67 461.03 393.93 C 455.22 388.63 447.57 385.91 440.03 384.17 C 434.79 383.91 429.48 383.76 424.26 384.29 Z" />
</svg>
